<?xml version="1.0" standalone="no"?>
<!DOCTYPE svg PUBLIC "-//W3C//DTD SVG 20010904//EN"
 "http://www.w3.org/TR/2001/REC-SVG-20010904/DTD/svg10.dtd">
<svg version="1.0" xmlns="http://www.w3.org/2000/svg"
 width="480.000000pt" height="480.000000pt" viewBox="0 0 480.000000 480.000000"
 preserveAspectRatio="xMidYMid meet">
<metadata>
Created by potrace 1.11, written by Peter Selinger 2001-2013
</metadata>
<g transform="translate(0.000000,480.000000) scale(0.100000,-0.100000)"
fill="#000000" stroke="none">
<path d="M4645 3996 c-33 -18 -85 -42 -115 -55 -30 -13 -73 -32 -95 -41 -70
-31 -227 -87 -320 -113 -267 -74 -422 -95 -675 -92 -251 3 -372 23 -800 134
-387 100 -602 126 -900 108 -63 -4 -124 -9 -135 -11 -44 -8 -102 -17 -140 -21
-68 -7 -446 -88 -560 -120 -27 -8 -142 -41 -255 -75 -113 -33 -214 -62 -225
-65 -11 -3 -51 -16 -90 -29 -50 -18 -72 -21 -76 -13 -4 7 -12 42 -19 78 -12
62 -12 69 6 95 60 88 -5 204 -114 204 -82 0 -140 -69 -128 -151 7 -47 40 -93
75 -104 11 -3 23 -19 27 -38 4 -18 8 -34 9 -37 15 -53 75 -306 81 -340 3 -14
9 -38 14 -55 5 -16 11 -41 14 -55 2 -14 9 -43 15 -65 10 -36 68 -275 76 -316
5 -23 114 -478 122 -509 4 -14 8 -32 9 -40 1 -8 13 -60 27 -115 14 -55 28
-113 31 -128 3 -16 10 -43 15 -60 6 -18 12 -43 15 -57 2 -14 20 -92 41 -175
38 -157 65 -270 70 -295 2 -8 24 -100 50 -205 25 -104 49 -201 51 -215 3 -14
10 -43 16 -65 12 -47 12 -48 23 -100 4 -22 14 -53 22 -68 12 -25 19 -28 55
-25 65 5 70 23 42 143 -13 55 -33 138 -44 185 -11 47 -64 271 -118 499 l-99
413 66 30 c36 17 71 31 76 32 6 1 19 7 30 13 23 12 222 86 310 115 65 21 307
85 352 92 102 18 167 27 228 33 92 10 320 10 415 0 102 -11 340 -60 545 -113
390 -101 584 -130 850 -127 142 2 347 26 470 57 248 61 550 172 730 269 77 42
80 45 79 79 -1 35 -26 63 -249 273 -17 17 -86 83 -152 147 l-120 118 197 352
c108 194 214 387 237 429 23 41 50 91 62 110 27 45 27 84 -1 103 -31 22 -53
18 -123 -18z m-27 -148 c-46 -71 -448 -808 -454 -832 -7 -31 -17 -21 364 -387
l141 -136 -52 -26 c-99 -48 -162 -75 -274 -116 -116 -42 -323 -107 -370 -115
-14 -3 -51 -10 -81 -17 -146 -30 -267 -41 -457 -42 -68 -1 -221 10 -262 17
-11 3 -38 7 -59 10 -59 10 -348 75 -401 91 -48 14 -237 60 -283 68 -14 3 -43
9 -65 15 -22 6 -60 13 -85 17 -25 4 -56 8 -70 11 -133 21 -449 24 -566 5 -38
-6 -89 -13 -114 -17 -63 -8 -250 -50 -334 -75 -155 -45 -442 -151 -528 -195
-36 -18 -50 -21 -53 -12 -4 13 -111 460 -121 508 -3 14 -30 126 -60 250 -31
124 -58 236 -60 250 -3 14 -14 63 -24 110 -11 47 -28 126 -38 176 l-19 91 86
28 c313 98 683 201 801 221 14 3 79 16 145 29 66 13 140 26 165 30 25 3 77 11
115 17 80 13 437 17 535 6 116 -14 275 -45 440 -87 533 -136 598 -146 895
-146 205 0 278 5 380 25 28 6 59 12 70 14 164 32 420 115 600 195 107 47 112
48 93 19z"/>
<path d="M899 3252 l-117 -76 0 -188 0 -188 40 -23 c22 -12 48 -27 57 -32 9
-6 47 -28 84 -49 l68 -38 108 71 108 72 -1 112 -1 112 -95 0 c-139 1 -142 0
-138 -44 l3 -36 55 -2 c30 -1 62 -2 70 -2 11 -1 15 -13 16 -45 1 -43 0 -44
-64 -86 l-65 -42 -41 23 c-23 12 -57 32 -76 44 l-35 22 1 133 c0 149 -7 135
101 200 l51 31 82 -47 c88 -50 84 -51 115 8 l15 27 -106 60 c-58 34 -109 61
-112 60 -4 0 -59 -35 -123 -77z"/>
<path d="M3340 3323 c-14 -3 -28 -8 -32 -11 -7 -7 10 -102 18 -102 3 0 25 5
50 11 30 8 43 16 40 25 -3 7 -8 29 -12 48 -6 37 -10 38 -64 29z"/>
<path d="M2087 3303 c-1 -1 -63 -4 -137 -7 -74 -2 -140 -5 -146 -5 -9 -1 -10
-23 -5 -74 1 -5 43 -8 94 -7 50 1 98 1 105 1 9 -1 12 -61 12 -266 l0 -265 44
0 c26 0 45 5 48 13 2 6 3 128 3 270 l-1 257 80 1 c45 1 91 1 104 2 19 0 22 5
22 44 l0 44 -111 -3 c-61 -2 -111 -4 -112 -5z"/>
<path d="M2997 3303 c-2 -1 -40 -3 -85 -4 -61 -1 -82 -5 -83 -15 -6 -62 -4
-69 21 -74 l25 -5 0 -260 0 -260 48 -3 47 -3 0 269 0 268 88 3 c48 1 109 4
137 5 l49 1 1 43 0 43 -123 -3 c-68 -2 -124 -4 -125 -5z"/>
<path d="M1434 3114 l-91 -54 -1 -138 c0 -76 3 -143 6 -148 12 -18 185 -115
196 -110 6 2 52 28 102 57 l90 54 0 143 c-1 115 -4 145 -16 153 -61 39 -171
99 -182 98 -7 -1 -54 -25 -104 -55z m166 -73 l45 -27 0 -92 c1 -101 1 -101
-69 -141 l-38 -22 -52 29 -51 29 -1 97 -1 96 51 30 c28 16 56 29 61 29 6 0 30
-13 55 -28z"/>
<path d="M2525 3152 c-16 -9 -58 -34 -92 -55 l-63 -38 -1 -67 c-1 -123 1 -214
6 -221 2 -5 45 -32 95 -60 l91 -53 99 56 99 57 3 127 c2 70 2 136 0 147 -2 13
-33 37 -96 73 -51 28 -97 52 -102 51 -5 0 -22 -8 -39 -17z m96 -109 l49 -28 0
-97 0 -97 -54 -31 -55 -31 -50 28 -51 28 2 99 3 100 45 27 c25 15 49 28 54 28
4 1 30 -11 57 -26z"/>
<path d="M3530 3141 l-34 -28 44 -59 c24 -33 46 -61 50 -64 3 -3 15 -18 26
-34 l21 -29 -42 -56 c-23 -31 -57 -78 -76 -104 l-34 -49 35 -28 35 -28 63 86
c35 48 67 91 72 95 4 5 39 -32 76 -82 38 -49 74 -90 79 -90 10 0 65 44 65 52
0 2 -8 13 -17 25 -10 11 -27 33 -38 48 -11 15 -39 51 -62 80 l-42 52 69 98 69
99 -27 22 c-15 12 -32 22 -39 23 -6 0 -37 -36 -69 -80 -31 -44 -60 -80 -63
-80 -3 1 -33 37 -66 80 -33 44 -60 80 -60 80 -1 0 -16 -13 -35 -29z"/>
<path d="M3338 3152 c-17 -3 -18 -23 -18 -238 l0 -234 45 0 45 0 0 235 c0 129
-3 235 -7 236 -39 4 -50 4 -65 1z"/>
<path d="M3027 3042 c-38 -3 -38 -3 -35 -45 l3 -42 65 2 c36 1 86 2 112 2 50
1 57 10 50 62 -4 26 -5 26 -80 25 -43 -1 -94 -2 -115 -4z"/>
</g>
</svg>
